<svg xmlns="http://www.w3.org/2000/svg" version="1.1" xmlns:xlink="http://www.w3.org/1999/xlink" xmlns:svgjs="http://svgjs.com/svgjs" width="1440" height="560" preserveAspectRatio="none" viewBox="0 0 1440 560"><g mask="url(&quot;#SvgjsMask1194&quot;)" fill="none"><rect width="1440" height="560" x="0" y="0" fill="rgba(134, 183, 232, 1)"></rect><path d="M1464 560L0 560 L0 364.51Q53.44 345.95, 72 399.4Q90.47 297.87, 192 316.34Q236.17 288.5, 264 332.67Q334.94 283.61, 384 354.54Q432.69 331.24, 456 379.93Q536.32 388.25, 528 468.57Q514.1 334.67, 648 320.77Q698.46 251.23, 768 301.69Q832.9 294.59, 840 359.49Q926.59 326.08, 960 412.66Q984.09 316.75, 1080 340.85Q1103.55 292.39, 1152 315.94Q1195.64 239.59, 1272 283.23Q1318.2 257.44, 1344 303.64Q1486.74 326.38, 1464 469.11z" fill="rgba(3, 173, 55, 1)"></path><path d="M1560 560L0 560 L0 567.22Q-18.62 476.6, 72 457.98Q118.88 384.86, 192 431.73Q274.15 393.88, 312 476.03Q397.83 489.86, 384 575.69Q374.65 446.34, 504 436.99Q592.03 405.02, 624 493.05Q675.29 472.35, 696 523.64Q726.15 433.79, 816 463.94Q843.77 419.71, 888 447.48Q937.63 425.12, 960 474.75Q1081.01 475.76, 1080 596.78Q1055.55 452.33, 1200 427.88Q1267.88 375.76, 1320 443.65Q1439.95 443.6, 1440 563.55Q1446.32 449.87, 1560 456.19z" fill="rgba(2, 104, 69, 1)"></path></g><defs><mask id="SvgjsMask1194"><rect width="1440" height="560" fill="#ffffff"></rect></mask></defs></svg>