<svg xmlns="http://www.w3.org/2000/svg" version="1.1" xmlns:xlink="http://www.w3.org/1999/xlink" xmlns:svgjs="http://svgjs.com/svgjs" width="1440" height="560" preserveAspectRatio="none" viewBox="0 0 1440 560"><g mask="url(&quot;#SvgjsMask1117&quot;)" fill="none"><rect width="1440" height="560" x="0" y="0" fill="rgba(1, 10, 33, 1)"></rect><path d="M1536 560L0 560 L0 312.94Q50.38 243.32, 120 293.7Q183.31 285, 192 348.31Q213.85 298.16, 264 320.02Q289.58 273.6, 336 299.18Q414.09 257.27, 456 335.36Q560.17 319.53, 576 423.7Q582.35 358.05, 648 364.4Q674.81 271.21, 768 298.02Q842.72 252.74, 888 327.46Q915.38 282.83, 960 310.21Q1021.96 300.17, 1032 362.14Q1105.85 315.99, 1152 389.84Q1200.28 366.12, 1224 414.4Q1237.52 307.92, 1344 321.44Q1361.84 267.28, 1416 285.12Q1483.4 232.52, 1536 299.93z" fill="rgba(244, 3, 78, 1)"></path><path d="M1488 560L0 560 L0 429Q127.2 484.2, 72 611.4Q47.15 466.55, 192 441.7Q242.22 371.92, 312 422.14Q348.93 387.06, 384 423.99Q504.3 424.29, 504 544.59Q597.29 517.88, 624 611.18Q626.75 493.93, 744 496.68Q745.63 426.31, 816 427.95Q904.63 444.58, 888 533.2Q957.88 531.08, 960 600.96Q1001.81 570.77, 1032 612.58Q1037.16 545.75, 1104 550.91Q1076.31 451.22, 1176 423.53Q1251.13 378.66, 1296 453.79Q1412.26 450.05, 1416 566.31Q1463.22 541.52, 1488 588.74z" fill="rgba(240, 140, 185, 1)"></path></g><defs><mask id="SvgjsMask1117"><rect width="1440" height="560" fill="#ffffff"></rect></mask></defs></svg>