<svg xmlns="http://www.w3.org/2000/svg" version="1.1" xmlns:xlink="http://www.w3.org/1999/xlink" xmlns:svgjs="http://svgjs.com/svgjs" width="1440" height="560" preserveAspectRatio="none" viewBox="0 0 1440 560"><g mask="url(&quot;#SvgjsMask1335&quot;)" fill="none"><rect width="1440" height="560" x="0" y="0" fill="url(#SvgjsLinearGradient1336)"></rect><path d="M1229.97 455.74 a18.76 18.76 0 1 0 37.52 0 a18.76 18.76 0 1 0 -37.52 0z" stroke="#e73635"></path><path d="M904.84 105.96L914.47 105.96L914.47 115.59L904.84 115.59z" fill="#037b0b"></path><path d="M431.23 260.93L480.15 260.93L480.15 277.46L431.23 277.46z" stroke="#e73635"></path><path d="M1072.86 519.41L1104.94 519.41L1104.94 554.15L1072.86 554.15z" stroke="#037b0b"></path><path d="M289.33 16.7a6.49 6.49 0 1 0 2.54-12.73z" fill="#037b0b"></path><path d="M815.08 377.12L848.94 377.12L848.94 392.3L815.08 392.3z" stroke="#d3b714"></path><path d="M102.85 510.09L142.81 510.09L142.81 550.05L102.85 550.05z" stroke="#e73635"></path><path d="M1281.85 506.43 a13.62 13.62 0 1 0 27.24 0 a13.62 13.62 0 1 0 -27.24 0z" stroke="#037b0b"></path><path d="M1059.79 288.67a8.52 8.52 0 1 0 16.98-1.34z" stroke="#e73635"></path><path d="M1427.15 507.74L1481.05 507.74L1481.05 561.64L1427.15 561.64z" stroke="#037b0b"></path><path d="M1321.83 442.38 a55.1 55.1 0 1 0 110.2 0 a55.1 55.1 0 1 0 -110.2 0z" fill="#d3b714"></path><path d="M780.93 43.81L796.69 43.81L796.69 59.57L780.93 59.57z" stroke="#e73635"></path><path d="M901.23 185.7L955.08 185.7L955.08 239.55L901.23 239.55z" fill="#037b0b"></path><path d="M1038.35 519.07a17.33 17.33 0 1 0 20.08-28.26z" fill="#037b0b"></path><path d="M412.92 504.11 a49.16 49.16 0 1 0 98.32 0 a49.16 49.16 0 1 0 -98.32 0z" fill="#e73635"></path><path d="M1001.28 122.96a25.25 25.25 0 1 0-34.12 37.24z" stroke="#037b0b"></path><path d="M139.72 96.89L147.86 96.89L147.86 142.26L139.72 142.26z" fill="#d3b714"></path><path d="M417.98 158.58a12.9 12.9 0 1 0-7.73 24.61z" stroke="#e73635"></path><path d="M252.75 389.75L262.87 389.75L262.87 399.87L252.75 399.87z" stroke="#e73635"></path><path d="M912.63 500.9L927.23 500.9L927.23 515.5L912.63 515.5z" stroke="#037b0b"></path><path d="M1362.03 379.66L1403.74 379.66L1403.74 421.37L1362.03 421.37z" stroke="#d3b714"></path><path d="M524.4 100.6L564.43 100.6L564.43 140.63L524.4 140.63z" fill="#e73635"></path><path d="M553.6 410.61a11.44 11.44 0 1 0 11.76 19.63z" fill="#e73635"></path><path d="M65.28 245.52L105.94 245.52L105.94 286.18L65.28 286.18z" fill="#037b0b"></path><path d="M1425.11 125.18 a2.04 2.04 0 1 0 4.08 0 a2.04 2.04 0 1 0 -4.08 0z" stroke="#e73635"></path><path d="M359.67 319.81 a3.28 3.28 0 1 0 6.56 0 a3.28 3.28 0 1 0 -6.56 0z" stroke="#037b0b"></path><path d="M1369.87 454.6a41.77 41.77 0 1 0 82.4-13.74z" fill="#e73635"></path><path d="M834.78 29.96 a33.62 33.62 0 1 0 67.24 0 a33.62 33.62 0 1 0 -67.24 0z" fill="#e73635"></path><path d="M1388.71 113.89a13.34 13.34 0 1 0-23.29 13.02z" stroke="#e73635"></path><path d="M654.72 307.58L685.58 307.58L685.58 338.44L654.72 338.44z" fill="#d3b714"></path><path d="M1323.75 42.6a10.94 10.94 0 1 0 11.11 18.85z" stroke="#e73635"></path><path d="M115.75 465.05L165.38 465.05L165.38 514.68L115.75 514.68z" stroke="#037b0b"></path><path d="M166.09 261.35L170.9 261.35L170.9 266.16L166.09 266.16z" fill="#037b0b"></path></g><defs><mask id="SvgjsMask1335"><rect width="1440" height="560" fill="#ffffff"></rect></mask><linearGradient x1="15.28%" y1="-39.29%" x2="84.72%" y2="139.29%" gradientUnits="userSpaceOnUse" id="SvgjsLinearGradient1336"><stop stop-color="#0e2a47" offset="0"></stop><stop stop-color="rgba(0, 20, 45, 1)" offset="1"></stop></linearGradient></defs></svg>