<svg xmlns="http://www.w3.org/2000/svg" version="1.1" xmlns:xlink="http://www.w3.org/1999/xlink" xmlns:svgjs="http://svgjs.com/svgjs" width="1440" height="250" preserveAspectRatio="none" viewBox="0 0 1440 250"><g mask="url(&quot;#SvgjsMask1738&quot;)" fill="none"><rect width="1440" height="250" x="0" y="0" fill="url(#SvgjsLinearGradient1739)"></rect><path d="M2 250L252 0L517.5 0L267.5 250z" fill="url(#SvgjsLinearGradient1740)"></path><path d="M258.6 250L508.6 0L814.6 0L564.6 250z" fill="url(#SvgjsLinearGradient1740)"></path><path d="M510.20000000000005 250L760.2 0L1117.2 0L867.2 250z" fill="url(#SvgjsLinearGradient1740)"></path><path d="M754.8000000000001 250L1004.8000000000001 0L1249.3000000000002 0L999.3000000000001 250z" fill="url(#SvgjsLinearGradient1740)"></path><path d="M1412 250L1162 0L946 0L1196 250z" fill="url(#SvgjsLinearGradient1741)"></path><path d="M1190.4 250L940.4000000000001 0L677.9000000000001 0L927.9000000000001 250z" fill="url(#SvgjsLinearGradient1741)"></path><path d="M929.8 250L679.8 0L429.29999999999995 0L679.3 250z" fill="url(#SvgjsLinearGradient1741)"></path><path d="M719.1999999999999 250L469.19999999999993 0L170.69999999999993 0L420.69999999999993 250z" fill="url(#SvgjsLinearGradient1741)"></path><path d="M1310.3026176090643 250L1440 120.30261760906433L1440 250z" fill="url(#SvgjsLinearGradient1740)"></path><path d="M0 250L129.69738239093567 250L 0 120.30261760906433z" fill="url(#SvgjsLinearGradient1741)"></path></g><defs><mask id="SvgjsMask1738"><rect width="1440" height="250" fill="#ffffff"></rect></mask><linearGradient x1="50%" y1="100%" x2="50%" y2="0%" gradientUnits="userSpaceOnUse" id="SvgjsLinearGradient1739"><stop stop-color="#0e2a47" offset="0"></stop><stop stop-color="rgba(1, 0, 2, 1)" offset="1"></stop></linearGradient><linearGradient x1="0%" y1="100%" x2="100%" y2="0%" id="SvgjsLinearGradient1740"><stop stop-color="rgba(0, 48, 165, 0.2)" offset="0"></stop><stop stop-opacity="0" stop-color="rgba(0, 48, 165, 0.2)" offset="0.66"></stop></linearGradient><linearGradient x1="100%" y1="100%" x2="0%" y2="0%" id="SvgjsLinearGradient1741"><stop stop-color="rgba(0, 48, 165, 0.2)" offset="0"></stop><stop stop-opacity="0" stop-color="rgba(0, 48, 165, 0.2)" offset="0.66"></stop></linearGradient></defs></svg>