<svg xmlns="http://www.w3.org/2000/svg" version="1.1" xmlns:xlink="http://www.w3.org/1999/xlink" xmlns:svgjs="http://svgjs.com/svgjs" width="1440" height="560" preserveAspectRatio="none" viewBox="0 0 1440 560"><g mask="url(&quot;#SvgjsMask1268&quot;)" fill="none"><rect width="1440" height="560" x="0" y="0" fill="url(#SvgjsLinearGradient1269)"></rect><path d="M1440 0L1171.69 0L1440 141.2z" fill="rgba(255, 255, 255, .1)"></path><path d="M1171.69 0L1440 141.2L1440 353.39L734.3600000000001 0z" fill="rgba(255, 255, 255, .075)"></path><path d="M734.36 0L1440 353.39L1440 433.61L374.25 0z" fill="rgba(255, 255, 255, .05)"></path><path d="M374.25 0L1440 433.61L1440 496.59000000000003L160.77 0z" fill="rgba(255, 255, 255, .025)"></path><path d="M0 560L516.56 560L0 555.98z" fill="rgba(0, 0, 0, .1)"></path><path d="M0 555.98L516.56 560L629.67 560L0 368.18z" fill="rgba(0, 0, 0, .075)"></path><path d="M0 368.17999999999995L629.67 560L941.92 560L0 182.65999999999994z" fill="rgba(0, 0, 0, .05)"></path><path d="M0 182.65999999999997L941.92 560L1104.24 560L0 78.58999999999997z" fill="rgba(0, 0, 0, .025)"></path></g><defs><mask id="SvgjsMask1268"><rect width="1440" height="560" fill="#ffffff"></rect></mask><linearGradient x1="50%" y1="100%" x2="50%" y2="0%" gradientUnits="userSpaceOnUse" id="SvgjsLinearGradient1269"><stop stop-color="rgba(0, 65, 133, 1)" offset="0"></stop><stop stop-color="rgba(255, 1, 79, 1)" offset="1"></stop></linearGradient></defs></svg>